<?xml version="1.0" standalone="no"?>
<!DOCTYPE svg PUBLIC "-//W3C//DTD SVG 20010904//EN"
 "http://www.w3.org/TR/2001/REC-SVG-20010904/DTD/svg10.dtd">
<svg version="1.0" xmlns="http://www.w3.org/2000/svg"
 width="1000.000000pt" height="1000.000000pt" viewBox="0 0 1000.000000 1000.000000"
 preserveAspectRatio="xMidYMid meet">
<metadata>
Created by potrace 1.14, written by Peter Selinger 2001-2017
</metadata>
<g transform="translate(0.000000,1000.000000) scale(0.100000,-0.100000)"
fill="#000000" stroke="none">
<path d="M2906 7055 c-195 -54 -340 -205 -408 -425 l-23 -75 -3 -930 c-2 -618
1 -953 8 -998 56 -365 311 -560 710 -544 147 6 234 27 338 82 95 50 180 141
232 250 63 130 72 191 77 513 l5 282 -219 -2 -218 -3 -5 -270 c-4 -236 -7
-275 -24 -314 -38 -86 -148 -133 -262 -112 -75 14 -127 51 -156 110 l-23 46
-3 894 c-3 975 -3 962 53 1030 80 95 269 100 351 9 55 -60 59 -78 64 -313 l5
-220 218 -3 217 -2 0 190 c0 273 -19 380 -93 523 -71 138 -202 242 -353 282
-77 20 -415 20 -488 0z"/>
<path d="M4506 7013 c-13 -85 -139 -873 -182 -1138 -19 -121 -44 -274 -54
-340 -11 -66 -35 -217 -54 -335 -19 -118 -51 -318 -71 -445 -20 -126 -50 -311
-66 -409 -16 -99 -29 -192 -29 -208 l0 -28 205 0 c155 0 207 3 210 13 6 14 63
388 72 465 l6 52 285 -2 286 -3 36 -247 c21 -135 40 -253 43 -262 6 -14 35
-16 232 -16 l225 0 0 28 c0 16 -13 109 -30 208 -16 98 -38 238 -49 309 -34
214 -167 1050 -216 1350 -13 83 -42 265 -65 405 -22 140 -54 342 -72 448 l-31
192 -338 0 -337 0 -6 -37z m344 -639 c11 -71 56 -372 100 -669 44 -297 84
-565 89 -595 5 -30 7 -58 4 -62 -2 -4 -100 -7 -218 -7 -213 1 -215 1 -215 22
0 12 12 96 25 187 14 91 39 255 55 365 16 110 48 319 70 465 22 146 46 302 52
348 6 45 12 81 14 79 2 -2 13 -61 24 -133z"/>
<path d="M5910 5580 l0 -1470 208 2 207 3 5 1050 c3 578 6 1043 8 1034 2 -15
98 -374 317 -1184 48 -176 102 -376 120 -445 52 -195 103 -381 115 -422 l11
-38 234 0 235 0 0 1470 0 1470 -205 0 -205 0 -2 -866 -3 -865 -99 368 c-107
397 -115 428 -260 968 -53 198 -99 368 -102 378 -5 16 -28 17 -295 17 l-289 0
0 -1470z"/>
<path d="M3082 3828 c-30 -30 -3 -82 40 -76 29 4 47 50 28 72 -15 19 -51 21
-68 4z"/>
<path d="M3227 3833 c-13 -12 -7 -60 8 -73 8 -7 25 -10 39 -6 51 13 40 86 -13
86 -15 0 -31 -3 -34 -7z"/>
<path d="M2594 3661 c-23 -10 -54 -36 -70 -57 -29 -37 -29 -38 -32 -206 -3
-156 -2 -172 18 -214 33 -67 94 -99 185 -98 79 0 118 16 158 64 30 35 49 117
45 192 l-3 53 -100 0 -100 0 -3 -32 -3 -33 60 0 61 0 0 -59 c0 -49 -4 -62 -25
-84 -52 -51 -160 -43 -195 16 -18 28 -20 51 -20 186 l0 153 34 34 c29 29 41
34 80 34 77 0 120 -34 128 -100 2 -20 9 -26 37 -28 47 -5 55 7 41 59 -13 50
-60 105 -107 125 -46 20 -140 17 -189 -5z"/>
<path d="M3095 3666 c-43 -19 -94 -74 -105 -115 -5 -20 -10 -99 -10 -176 0
-158 12 -200 69 -248 87 -73 246 -54 309 37 32 46 45 134 40 261 -7 149 -34
203 -121 240 -44 18 -141 19 -182 1z m177 -85 l33 -29 3 -159 c2 -143 1 -161
-17 -190 -39 -62 -142 -69 -197 -12 -29 30 -29 31 -32 174 -3 120 -1 150 14
180 21 45 56 64 116 65 39 0 54 -5 80 -29z"/>
<path d="M3507 3674 c-4 -4 -7 -137 -7 -296 l0 -288 40 0 40 0 0 98 0 97 38
44 37 43 94 -141 94 -141 44 0 c53 0 58 -14 -69 177 -50 76 -93 145 -95 153
-2 8 39 66 92 128 52 62 95 118 95 123 0 5 -17 9 -38 9 -37 0 -44 -6 -163
-141 l-124 -142 -5 139 -5 139 -30 3 c-17 2 -34 0 -38 -4z"/>
<path d="M4095 3662 c-46 -22 -79 -55 -94 -95 -6 -16 -11 -100 -11 -191 0
-161 0 -162 29 -207 25 -40 79 -79 108 -79 22 0 54 -49 51 -76 -2 -23 -9 -30
-30 -32 -19 -2 -28 -9 -28 -22 0 -35 54 -40 94 -9 30 23 36 78 11 99 -24 20
-18 28 38 44 79 23 127 83 127 157 0 29 -2 30 -37 27 -33 -3 -38 -7 -44 -36
-14 -68 -85 -105 -158 -83 -74 22 -81 41 -81 223 l0 160 34 34 c29 29 41 34
80 34 76 0 126 -39 126 -100 0 -25 12 -31 49 -24 26 6 31 11 31 36 0 42 -34
99 -77 128 -49 34 -159 40 -218 12z"/>
<path d="M4505 3670 c-4 -6 -7 -137 -7 -293 l-1 -282 188 -3 c110 -1 193 2
198 7 5 5 7 21 3 35 l-6 26 -150 0 -150 0 0 95 0 95 105 0 105 0 0 35 0 35
-105 0 -105 0 0 95 0 94 152 3 c138 3 153 5 156 21 8 42 -11 47 -199 47 -110
0 -180 -4 -184 -10z"/>
<path d="M5127 3673 c-2 -4 -44 -132 -92 -283 -48 -151 -90 -280 -92 -288 -4
-10 5 -13 38 -10 42 3 43 4 60 53 l17 50 119 0 118 0 17 -50 c16 -48 17 -50
58 -53 41 -3 42 -3 36 25 -4 16 -46 148 -94 293 l-87 265 -47 3 c-25 2 -48 -1
-51 -5z m102 -253 c22 -75 41 -141 41 -148 0 -9 -27 -12 -95 -12 -52 0 -95 4
-95 8 0 4 9 35 19 68 11 32 32 99 46 148 15 48 30 84 35 80 4 -5 26 -70 49
-144z"/>
<path d="M5570 3664 c-77 -33 -110 -98 -90 -173 14 -52 62 -92 159 -131 144
-58 174 -89 147 -154 -17 -42 -67 -61 -132 -51 -49 7 -104 47 -104 75 0 37
-12 50 -46 50 -33 0 -34 -1 -34 -41 0 -82 67 -143 172 -155 150 -18 267 84
228 200 -17 51 -64 87 -178 135 -130 55 -158 86 -131 144 14 32 49 47 105 47
76 0 124 -36 124 -94 0 -24 4 -26 41 -26 l42 0 -6 46 c-6 57 -31 91 -87 121
-52 28 -155 31 -210 7z"/>
<path d="M5977 3674 c-4 -4 -7 -137 -7 -296 l0 -288 190 0 190 0 0 35 0 35
-150 0 -150 0 -2 258 -3 257 -30 3 c-17 2 -34 0 -38 -4z"/>
<path d="M6571 3648 c-7 -18 -50 -149 -96 -291 -88 -273 -88 -272 -28 -265 24
3 31 11 47 56 l19 53 116 -3 116 -3 19 -52 c18 -52 20 -53 57 -53 31 0 39 4
38 18 0 9 -42 141 -92 292 l-92 275 -46 3 c-45 3 -47 2 -58 -30z m86 -155 c13
-43 34 -113 47 -155 l24 -78 -99 0 c-54 0 -99 2 -99 3 0 2 20 70 45 151 25 82
45 150 45 152 0 2 3 4 8 4 4 0 17 -35 29 -77z"/>
<path d="M6957 3674 c-4 -4 -7 -137 -7 -296 l0 -289 38 3 37 3 5 206 5 207
129 -209 128 -209 39 0 39 0 -2 293 -3 292 -35 0 -35 0 -5 -210 -5 -210 -23
35 c-13 19 -72 114 -131 210 -97 158 -110 175 -137 178 -16 2 -33 0 -37 -4z"/>
</g>
</svg>
