<?xml version="1.0" encoding="utf-8"?>
<!-- Generator: Adobe Illustrator 22.1.0, SVG Export Plug-In . SVG Version: 6.00 Build 0)  -->
<svg version="1.1" id="Layer_1" xmlns="http://www.w3.org/2000/svg" xmlns:xlink="http://www.w3.org/1999/xlink" x="0px" y="0px"
	 viewBox="0 0 512 512" style="enable-background:new 0 0 512 512;" xml:space="preserve">
<g>
	<path d="M382.9,471.7L254.8,312.5l122.8-118.9c2.3-2.4,1.5-9.2-4.7-9.2h-60.8c-3.1,0-6.2,1.6-9.2,4.7L186.7,306.5V37.6
		c0-4.4-2.2-6.6-6.6-6.6h-45.6c-4.4,0-6.6,2.2-6.6,6.6v436.7c0,4.4,2.2,6.6,6.6,6.6h45.6c4.4,0,6.6-2.2,6.6-6.6v-95.8l27.1-25.7
		l97.1,123.6c2.6,3.1,5.7,4.7,9.2,4.7h58.8c3.1,0,4.8-0.9,5.3-2.6L382.9,471.7z"/>
</g>
</svg>
